<?xml version="1.0" encoding="UTF-8"?><svg id="a" xmlns="http://www.w3.org/2000/svg" viewBox="0 0 24 24"><defs><style>.b{fill:#fff;}.c{fill:#f687fd;}.d{fill:none;}</style></defs><path class="d" d="M0,0H24V24H0V0Z"/><path class="b" d="M17,18c-1.1,0-1.99,.9-1.99,2s.89,2,1.99,2,2-.9,2-2-.9-2-2-2Zm-10,0c-1.1,0-1.99,.9-1.99,2s.89,2,1.99,2,2-.9,2-2-.9-2-2-2Zm0-3l1.1-2h7.45c.75,0,1.41-.41,1.75-1.03l4.4-7.97H5.21l-.94-2H1v2H3l3.6,7.59-2.98,5.41h15.38v-2H7Z"/><circle class="c" cx="19" cy="5.06" r="3.06"/></svg>