<svg xmlns="http://www.w3.org/2000/svg" width="140" height="140" viewBox="0 0 140 140"><path d="M0,0H140V140H0Z" fill="none"/><path d="M70,19.818V1L37,26.091,70,51.182V32.364c27.307,0,49.5,16.874,49.5,37.636a30.1,30.1,0,0,1-5.775,17.564l12.045,9.158C132.205,89.006,136,79.848,136,70,136,42.275,106.465,19.818,70,19.818Zm0,87.818c-27.307,0-49.5-16.874-49.5-37.636a30.1,30.1,0,0,1,5.775-17.564L14.23,43.278C7.8,50.994,4,60.152,4,70c0,27.725,29.535,50.182,66,50.182V139l33-25.091L70,88.818Z" fill="#fff"/></svg>